# xmcd CD database file
#
# Track frame offsets:
#	150
#	28308
#	52439
#	78831
#	108360
#	132038
#	162751
#	185847
#	218436
#	242027
#	266129
#	295025
#	324553
#
# Disc length: 4794 seconds
#
# Revision: 3
# Processed by: cddbd v1.5.1PL2 Copyright (c) Steve Scherf et al.
# Submitted via: CDex 1.51
#
DISCID=bd12b80d
DTITLE=Dust_Box_49 - Alternative
DYEAR=2005
DGENRE=Game
TTITLE0=Monochromatic Satellite（カナベラルの夢幻少女）
TTITLE1=Sylphidia（オルフェの詩 〜 Pseudoclassic）
TTITLE2=Horizotal Space（Castle Explore -in the Sky-）
TTITLE3=Assault to Glory i（幻想帝都）
TTITLE4=Metro（乙女戦士 〜 Heart of Valkyrie）
TTITLE5=Reaches Phantasia（シルクロードアリス）
TTITLE6=it was Heavenly（アンティークテラー）
TTITLE7=Solitude Parade（稀翁玉 〜 Fairy Dance）
TTITLE8=VIVIT（天鵞絨少女戦）
TTITLE9=Mad Rhapsody（機械サーカス 〜 Reverie）
TTITLE10=Assault to Glory ii（エニグマティクドール 〜 God Knows）
TTITLE11=Wheel of Destiny（秋霜玉 〜 Clockworks）
TTITLE12=Another Daybreak（新幻想 〜 New Fantasy）
EXTD=YEAR: 2005
EXTT0=
EXTT1=
EXTT2=
EXTT3=
EXTT4=
EXTT5=
EXTT6=
EXTT7=
EXTT8=
EXTT9=
EXTT10=
EXTT11=
EXTT12=
PLAYORDER=
